<?xml version="1.0" encoding="utf-8"?><!-- Generator: Adobe Illustrator 17.1.0, SVG Export Plug-In . SVG Version: 6.00 Build 0)  --><!DOCTYPE svg PUBLIC "-//W3C//DTD SVG 1.0//EN" "http://www.w3.org/TR/2001/REC-SVG-20010904/DTD/svg10.dtd"><svg xmlns="http://www.w3.org/2000/svg" xmlns:xlink="http://www.w3.org/1999/xlink" version="1.0" id="Layer_1" x="0px" y="0px" viewBox="0 0 50 50" style="fill: #ffffff;" xml:space="preserve">
<path d="M29.414,0H6v50h38V14.586L29.414,0z M30,3.414L40.586,14H30V3.414z M42,48H8V2h20v14h14V48z M17.316,24.492  c-0.799,0-1.547,0.085-2.125,0.221V36h1.802v-4.472c0.17,0.018,0.323,0.018,0.51,0.018c0.969,0,2.074-0.391,2.754-1.19  c0.527-0.612,0.85-1.394,0.85-2.55c0-0.985-0.306-1.869-0.918-2.447C19.508,24.713,18.523,24.492,17.316,24.492z M17.435,30.067  c-0.187,0-0.306,0-0.442-0.034v-3.978c0.153-0.051,0.374-0.085,0.629-0.085c1.224,0,1.666,0.902,1.666,1.972  C19.288,29.252,18.625,30.067,17.435,30.067z M24.559,24.492c-0.782,0-1.513,0.085-2.04,0.221h0.002v11.252  c0.408,0.068,1.037,0.119,1.666,0.119c1.478,0,2.6-0.374,3.365-1.156c0.867-0.849,1.479-2.396,1.479-4.861  c0-2.295-0.578-3.79-1.514-4.623C26.837,24.815,25.885,24.492,24.559,24.492z M24.762,34.589c-0.119,0-0.289,0-0.442-0.034v-8.55  c0.153-0.034,0.34-0.051,0.527-0.051c1.581,0,2.312,1.496,2.312,4.097C27.159,33.535,26.019,34.589,24.762,34.589z M32.327,36  h-1.819V24.543h4.709v1.581h-2.89v3.417h2.702v1.513h-2.702V36z"/>
</svg>